<svg width="16" height="16" viewBox="0 0 16 16" fill="none" xmlns="http://www.w3.org/2000/svg">
<path d="M13 10H12V12H10V13H12V15H13V13H15V12H13V10Z" fill="#FAFAF9"/>
<rect x="2.5" y="13" width="6" height="1" fill="#FAFAF9"/>
<mask id="mask0_7_2" style="mask-type:alpha" maskUnits="userSpaceOnUse" x="0" y="1" width="16" height="13">
<path d="M15 5.34001L14 2.34001C13.9652 2.23652 13.8975 2.14726 13.8072 2.08587C13.7169 2.02447 13.609 1.99432 13.5 2.00001H2.5C2.39097 1.99432 2.28307 2.02447 2.19278 2.08587C2.1025 2.14726 2.03479 2.23652 2 2.34001L1 5.34001C0.992797 5.3931 0.992797 5.44692 1 5.50001V8.50001C1 8.63262 1.05268 8.75979 1.14645 8.85356C1.24022 8.94733 1.36739 9.00001 1.5 9.00001H2V14H3V9.00001H6V14H14V9.00001H14.5C14.6326 9.00001 14.7598 8.94733 14.8536 8.85356C14.9473 8.75979 15 8.63262 15 8.50001V5.50001C15.0072 5.44692 15.0072 5.3931 15 5.34001V5.34001ZM13 13H7V9.00001H13V13ZM14 8.00001H12V6.00001H11V8.00001H8.5V6.00001H7.5V8.00001H5V6.00001H4V8.00001H2V5.58001L2.86 3.00001H13.14L14 5.58001V8.00001Z" fill="black"/>
</mask>
<g mask="url(#mask0_7_2)">
<rect x="0.5" y="1.5" width="14.5" height="7.5" fill="#FAFAF9"/>
<rect x="0.5" y="9" width="8.5" height="5" fill="#FAFAF9"/>
</g>
</svg>
